<?xml version="1.0" encoding="utf-8"?>
<!-- Generator: Adobe Illustrator 25.4.1, SVG Export Plug-In . SVG Version: 6.00 Build 0)  -->
<svg version="1.1" id="Layer_1" xmlns="http://www.w3.org/2000/svg" xmlns:xlink="http://www.w3.org/1999/xlink" x="0px" y="0px"
	 viewBox="0 0 279.93 139" style="enable-background:new 0 0 279.93 139;" xml:space="preserve">
<style type="text/css">
	.st0{fill:url(#SVGID_1_);}
	.st1{fill:#231F20;}
</style>
<g>
	<g>
		<linearGradient id="SVGID_1_" gradientUnits="userSpaceOnUse" x1="13.1739" y1="69.5009" x2="112.52" y2="69.5009">
			<stop  offset="0" style="stop-color:#80BC47"/>
			<stop  offset="1" style="stop-color:#B8CF39"/>
		</linearGradient>
		<path class="st0" d="M75.17,6.54h-13.2c-20.63,0-37.35,16.72-37.35,37.35v37.35h50.54c20.63,0,37.35-16.72,37.35-37.35v0
			C112.52,23.26,95.8,6.54,75.17,6.54z M73.31,59.31H48.41V43.89c0-8.5,6.92-15.42,15.42-15.42h9.47c8.5,0,15.42,6.92,15.42,15.42
			C88.73,52.39,81.81,59.31,73.31,59.31z M30.08,132.46L30.08,132.46c-9.33,0-16.9-7.57-16.9-16.9v-9.96c0-9.33,7.57-16.9,16.9-16.9
			h16.9v26.86C46.98,124.89,39.41,132.46,30.08,132.46z"/>
	</g>
	<g>
		<path class="st1" d="M151.89,73.94h-4.76v11.31h-7.68V53.74h12.44c7.72,0,11.58,4.35,11.58,10.15
			C163.48,69.1,159.93,73.94,151.89,73.94z M151.31,67.84c3.05,0,4.35-1.53,4.35-3.95s-1.3-3.95-4.35-3.95h-4.18v7.9H151.31z"/>
		<path class="st1" d="M176.44,53.74h7.68v31.52h-7.68V53.74z"/>
		<path class="st1" d="M211.54,75.61l-5.66,9.65h-8.71l10.1-16.03l-10.32-15.49h8.93l6.33,9.52l5.57-9.52h8.71l-10.01,15.89
			l10.42,15.62h-8.93L211.54,75.61z"/>
		<path class="st1" d="M237.26,53.74h8.71l6.11,13.2l6.06-13.2h8.62l-10.91,21.1v10.41h-7.68V74.84L237.26,53.74z"/>
	</g>
</g>
</svg>
